<svg xmlns="http://www.w3.org/2000/svg" viewBox="0 0 100 100">
<path fill="#ffffff" d="M5.3 55.2h7.6l4 18.2h.2l4.3-18.2h7.6v24.6H23.6v-15.9h-.2L19 80h-3.9l-4.5-16.1h-.2v16.1H5.3V55.2zm28.8 0h6.2l7.7 24.6h-5.8l-1.3-4.8h-7.6l-1.3 4.8H36l5.7-24.6.2-1.9.1 1.9zm3.8 15.6h5.3l-2.6-9.6h-.2l-2.5 9.6zM51.9 55.2h10c3 0 5.1.5 6.4 1.6 1.3 1.1 2 2.8 2 5.1 0 3.3-1.6 5.6-4.9 6.8l5.8 11.2h-6.2L60 69.3h-2.8v10.6H51.9V55.2zm5.4 4.5v5.3h3.5c1.4 0 2.3-.3 2.8-.8.4-.5.7-1.3.7-2.1 0-1-.3-1.6-.8-2s-1.4-.4-2.8-.4h-3.4zm17.6-4.5h5.4v14c0 2.2.5 3.7 1.4 4.8.9 1.1 2.3 1.6 4.1 1.6 1.8 0 3.2-.5 4.1-1.6.9-1.1 1.4-2.7 1.4-4.8v-14h5.4v14.4c0 3.3-.9 5.8-2.6 7.6-1.7 1.8-4.2 2.8-7.3 2.8-3.1 0-5.6-.9-7.3-2.8s-2.6-4.3-2.6-7.6v-14.4h-2zm26 4.5v20.1h-5.4V59.7h-5.6v-4.5h16.5v4.5h-5.5z"/>
<path fill="#ffffff" d="M10.1 25.8c-2.3 0-3.9 1.9-3.9 4.3 0 1.2.5 2.2 1.3 2.9 1.1.9 2.5 1.5 3.9 1.5 1.9 0 3-1.1 3-2.7 0-1.6-1.1-2.9-2.3-3.6-1-.5-2-.6-3-.5-1.1.2-1.9.7-2.3 1.6-.2.4-.2.8-.2 1.3 0 1.3 1 2.4 2.2 2.4.9 0 1.7-.5 1.7-1.5 0-.6-.5-1.1-1.1-1.1-.3 0-.6.1-.9.3-.1.1-.2.1-.2.2 0 .1.1.2.2.2.4-.2.8-.4 1.2-.4.4 0 .7.3.7.7 0 .8-.9 1-1.4 1-.7 0-1.2-.5-1.2-1.2 0-.3.1-.6.3-.9.6-1.1 2.1-1.5 3.3-1.1 1.2.4 1.9 1.6 1.8 2.8 0 1.2-.7 2.1-2 2.1-1.5 0-2.8-.8-2.8-2.4 0-1.8 1.4-3.3 3.3-3.3zm-7.6 0H10v3H4.3l4 3.9H2.6l-3.8-3.7v3.7H-2.5v-6.9h5z"/>
<!-- Authentic Suzuki 'S' Logo -->
<path fill="#ed1c24" transform="scale(0.045) translate(450, 200)" d="M1029.1,734.5c0,0-87.2,25.3-256.3,129.2C621,957,561.5,1019.7,561.5,1019.7L93.7,696.4c0,0,196.8-144.7,361.3-33.9l220.6,151.3l26.9-17.7L93.7,369.8c0,0,87.5-25.3,256.6-129.2C502.2,147.2,561.5,84.5,561.5,84.5l468,323.3c0,0-196.8,144.8-361.3,33.9L447.6,290.3L420.7,308L1029.1,734.5z"/>
</svg>
